<svg width="82" height="22" viewBox="0 0 82 22" fill="none" xmlns="http://www.w3.org/2000/svg">
<path d="M16.7617 4.41602H10.6641V21H6.5625V4.41602H0.546875V1.09375H16.7617V4.41602ZM23.0234 21H19.0586V6.20703H23.0234V21ZM18.8262 2.37891C18.8262 1.78646 19.0221 1.29883 19.4141 0.916016C19.8151 0.533203 20.3574 0.341797 21.041 0.341797C21.7155 0.341797 22.2533 0.533203 22.6543 0.916016C23.0553 1.29883 23.2559 1.78646 23.2559 2.37891C23.2559 2.98047 23.0508 3.47266 22.6406 3.85547C22.2396 4.23828 21.7064 4.42969 21.041 4.42969C20.3757 4.42969 19.8379 4.23828 19.4277 3.85547C19.0267 3.47266 18.8262 2.98047 18.8262 2.37891ZM30.4609 21H26.4961V0H30.4609V21ZM38.459 2.57031V6.20703H40.9883V9.10547H38.459V16.4883C38.459 17.0352 38.5638 17.4271 38.7734 17.6641C38.9831 17.901 39.3841 18.0195 39.9766 18.0195C40.4141 18.0195 40.8014 17.9876 41.1387 17.9238V20.918C40.3639 21.1549 39.5664 21.2734 38.7461 21.2734C35.9753 21.2734 34.5625 19.8743 34.5078 17.0762V9.10547H32.3477V6.20703H34.5078V2.57031H38.459ZM51.502 9.91211C50.9642 9.83919 50.4902 9.80273 50.0801 9.80273C48.5853 9.80273 47.6055 10.3086 47.1406 11.3203V21H43.1895V6.20703H46.9219L47.0312 7.9707C47.8242 6.61263 48.9225 5.93359 50.3262 5.93359C50.7637 5.93359 51.1738 5.99284 51.5566 6.11133L51.502 9.91211ZM59.9512 21.2734C57.7819 21.2734 56.0137 20.6081 54.6465 19.2773C53.2884 17.9466 52.6094 16.1738 52.6094 13.959V13.5762C52.6094 12.0905 52.8965 10.7643 53.4707 9.59766C54.0449 8.42188 54.8561 7.51953 55.9043 6.89062C56.9616 6.2526 58.1647 5.93359 59.5137 5.93359C61.5371 5.93359 63.1276 6.57161 64.2852 7.84766C65.4518 9.1237 66.0352 10.9329 66.0352 13.2754V14.8887H56.6152C56.7428 15.8548 57.1257 16.6296 57.7637 17.2129C58.4108 17.7962 59.2266 18.0879 60.2109 18.0879C61.7331 18.0879 62.9225 17.5365 63.7793 16.4336L65.7207 18.6074C65.1283 19.446 64.3262 20.1022 63.3145 20.5762C62.3027 21.041 61.1816 21.2734 59.9512 21.2734ZM59.5 9.13281C58.7161 9.13281 58.0781 9.39714 57.5859 9.92578C57.1029 10.4544 56.793 11.2109 56.6562 12.1953H62.1523V11.8809C62.1341 11.0059 61.8971 10.3314 61.4414 9.85742C60.9857 9.37435 60.3385 9.13281 59.5 9.13281ZM75.0996 21.2734C72.9303 21.2734 71.1621 20.6081 69.7949 19.2773C68.4368 17.9466 67.7578 16.1738 67.7578 13.959V13.5762C67.7578 12.0905 68.0449 10.7643 68.6191 9.59766C69.1934 8.42188 70.0046 7.51953 71.0527 6.89062C72.11 6.2526 73.3132 5.93359 74.6621 5.93359C76.6855 5.93359 78.276 6.57161 79.4336 7.84766C80.6003 9.1237 81.1836 10.9329 81.1836 13.2754V14.8887H71.7637C71.8913 15.8548 72.2741 16.6296 72.9121 17.2129C73.5592 17.7962 74.375 18.0879 75.3594 18.0879C76.8815 18.0879 78.071 17.5365 78.9277 16.4336L80.8691 18.6074C80.2767 19.446 79.4746 20.1022 78.4629 20.5762C77.4512 21.041 76.3301 21.2734 75.0996 21.2734ZM74.6484 9.13281C73.8646 9.13281 73.2266 9.39714 72.7344 9.92578C72.2513 10.4544 71.9414 11.2109 71.8047 12.1953H77.3008V11.8809C77.2826 11.0059 77.0456 10.3314 76.5898 9.85742C76.1341 9.37435 75.487 9.13281 74.6484 9.13281Z" fill="#6C63FF"/>
</svg>
