<svg width="1167" height="758" viewBox="0 0 1167 758" fill="none" xmlns="http://www.w3.org/2000/svg">
<path opacity="0.1" d="M659.62 109.61C584.87 109.71 512.92 88.52 444.1 64.98C375.28 41.44 306.99 15.08 233.63 3.90999C186.45 -3.27001 132.8 -2.61001 95.92 23.46C60.42 48.54 50.14 90.05 45.18 128.4C41.45 157.25 39.73 187.53 53.7 213.92C63.4 232.24 80 247.34 91.7 264.8C132.54 325.54 107.98 403.13 68.29 465.28C49.68 494.44 27.88 522.39 13.81 553.22C-0.259969 584.05 -6.02997 619.01 8.32003 649.44C22.54 679.6 54.66 701.49 89.13 716.44C159.13 746.86 240.63 753.38 319.94 755.89C495.5 761.46 671.4 750.1 846.83 738.74C911.75 734.54 976.96 730.31 1040.54 718.14C1075.84 711.39 1112.19 701.37 1137.22 679.41C1168.99 651.53 1175.49 606.01 1152.37 573.29C1113.6 518.41 1011.37 508.06 983.57 448.68C968.24 415.99 981.46 378.5 1000.93 346.99C1042.69 279.38 1114.57 218.82 1115.78 143.2C1116.61 91.27 1079.23 40.61 1023.4 18.04C964.88 -5.60001 885.09 0.479992 844.09 44.54C801.93 89.93 725.62 109.54 659.62 109.61Z" fill="#6C63FF"/>
</svg>
